<?xml version="1.0" encoding="utf-8"?>
<!-- Generator: Adobe Illustrator 17.0.1, SVG Export Plug-In . SVG Version: 6.00 Build 0)  -->
<!DOCTYPE svg PUBLIC "-//W3C//DTD SVG 1.1//EN" "http://www.w3.org/Graphics/SVG/1.1/DTD/svg11.dtd">
<svg version="1.1" id="Layer_1" xmlns="http://www.w3.org/2000/svg" xmlns:xlink="http://www.w3.org/1999/xlink" x="0px" y="0px"
	 width="150px" height="150px" viewBox="0 0 150 150" enable-background="new 0 0 150 150" xml:space="preserve">
<g>
	<polygon fill="none" points="125,125 125,149.7 149.5,125 	"/>
	<polygon fill="#C2C2C2" points="145.1,150 150,150 150,145.3 	"/>
	<polygon fill="#C2C2C2" points="150,126.1 126,150 130.3,150 150,130.4 	"/>
	<polygon fill="#C2C2C2" points="147.6,127.6 149.6,125.6 149.6,125.6 	"/>
	<polygon fill="#C2C2C2" points="150,140.5 140.3,150 144.6,150 150,144.8 	"/>
	<polygon fill="#C2C2C2" points="150,135.7 135.5,150 139.8,150 150,140 	"/>
	<polygon fill="#C2C2C2" points="150,130.9 130.8,150 135,150 150,135.2 	"/>
	
		<line fill="none" stroke="#C2C2C2" stroke-width="0" stroke-linecap="round" stroke-linejoin="round" x1="137.5" y1="149.7" x2="137.5" y2="149.7"/>
	
		<line fill="none" stroke="#C2C2C2" stroke-width="0" stroke-linecap="round" stroke-linejoin="round" x1="144" y1="150" x2="150" y2="150"/>
	
		<line fill="none" stroke="#C2C2C2" stroke-width="0" stroke-linecap="round" stroke-linejoin="round" x1="127" y1="150" x2="133" y2="150"/>
	
		<line fill="none" stroke="#C2C2C2" stroke-width="0" stroke-linecap="round" stroke-linejoin="round" x1="133" y1="150" x2="136" y2="150"/>
	
		<line fill="none" stroke="#C2C2C2" stroke-width="0" stroke-linecap="round" stroke-linejoin="round" x1="136" y1="150" x2="142" y2="150"/>
	<polygon fill="#C2C2C2" points="150,140 150,139.8 150,135.5 150,135.7 	"/>
	<polygon fill="#C2C2C2" points="150,130.4 150,130.3 150,126 150,126.1 	"/>
	<polygon fill="#C2C2C2" points="150,144.8 150,144.6 150,140.3 150,140.5 	"/>
	<polygon fill="#C2C2C2" points="150,145.3 150,149.7 150,149.7 150,145.1 	"/>
	<polygon fill="#C2C2C2" points="150,135.2 150,135 150,130.8 150,130.9 	"/>
	<polygon fill="#C2C2C2" points="147.8,127.7 150,125.6 150,125.6 150,125.5 150,125 149.5,125 125,149.7 125,150 125.5,150 	"/>
	<polygon points="150,130.8 150,130.5 130.5,150 130.8,150 149.7,131.1 	"/>
	<polygon points="150,135.5 150,135.3 135.3,150 135.5,150 149.7,135.8 	"/>
	<polygon points="150,126 150,125.7 125.7,150 126,150 149.7,126.3 	"/>
	<polygon points="150,145.1 150,144.8 144.8,150 145.1,150 149.7,145.4 	"/>
	<polygon points="150,140.3 150,140 140,150 140.3,150 149.7,140.6 	"/>
	<polygon fill="#FFFFFF" points="150,130.5 150,130.3 149.7,130.5 130.3,150 130.5,150 	"/>
	<polygon fill="#FFFFFF" points="150,135.3 150,135 149.7,135.3 135,150 135.3,150 	"/>
	<polygon fill="#FFFFFF" points="150,125.7 150,125.5 149.7,125.6 147.7,127.7 125.5,150 125.6,150 125.7,150 	"/>
	<polygon fill="#FFFFFF" points="150,144.8 150,144.6 149.7,144.9 144.6,150 144.8,150 	"/>
	<polygon fill="#FFFFFF" points="150,140 150,139.8 149.7,140.1 139.8,150 140,150 	"/>
</g>
</svg>
