<svg xmlns="http://www.w3.org/2000/svg" xmlns:xlink="http://www.w3.org/1999/xlink" viewBox="0 0 379.1 342.25"><defs><style>.cls-1,.cls-3,.cls-4,.cls-5{stroke-miterlimit:10;}.cls-1{fill:url(#radial-gradient);stroke:url(#radial-gradient-2);}.cls-2{fill:url(#linear-gradient);}.cls-3,.cls-4,.cls-5{stroke:#000;}.cls-3{fill:url(#linear-gradient-2);}.cls-4{fill:url(#linear-gradient-3);}.cls-5{fill:url(#linear-gradient-4);}.cls-6{fill:url(#radial-gradient-3);}.cls-7{fill:#9b020a;}.cls-8{fill:url(#radial-gradient-4);}</style><radialGradient id="radial-gradient" cx="189.55" cy="169.11" r="196.44" gradientTransform="translate(26.65 23.78) scale(0.86 0.86)" gradientUnits="userSpaceOnUse"><stop offset="0" stop-color="#fff"/><stop offset="0.51" stop-color="red"/></radialGradient><radialGradient id="radial-gradient-2" cx="189.55" cy="169.06" r="179.6" gradientUnits="userSpaceOnUse"><stop offset="0.49" stop-color="red"/><stop offset="1" stop-color="#fff"/></radialGradient><linearGradient id="linear-gradient" x1="175.8" y1="301.61" x2="203.8" y2="301.61" gradientUnits="userSpaceOnUse"><stop offset="0"/><stop offset="0.53" stop-color="#9c9090"/><stop offset="1"/></linearGradient><linearGradient id="linear-gradient-2" x1="111.05" y1="335.43" x2="268.55" y2="335.43" gradientUnits="userSpaceOnUse"><stop offset="0"/><stop offset="0.53" stop-color="#c2afaf"/><stop offset="1"/></linearGradient><linearGradient id="linear-gradient-3" x1="153.8" y1="325.11" x2="225.8" y2="325.11" gradientUnits="userSpaceOnUse"><stop offset="0"/><stop offset="0.53" stop-color="#e19a9a"/><stop offset="1"/></linearGradient><linearGradient id="linear-gradient-4" x1="176.2" y1="319.11" x2="203.05" y2="319.11" xlink:href="#linear-gradient-3"/><radialGradient id="radial-gradient-3" cx="189.8" cy="217.11" fx="235.88369428088527" r="60.4" gradientUnits="userSpaceOnUse"><stop offset="0.21" stop-color="#fff"/><stop offset="0.29" stop-color="#f5d8d8"/><stop offset="0.43" stop-color="#e69b9d"/><stop offset="0.56" stop-color="#da696c"/><stop offset="0.68" stop-color="#d04245"/><stop offset="0.79" stop-color="#c9262a"/><stop offset="0.89" stop-color="#c51519"/><stop offset="0.96" stop-color="#c30f13"/></radialGradient><radialGradient id="radial-gradient-4" cx="177.81" cy="154.85" r="12.89" gradientTransform="translate(-207.89 -435.04) scale(2.18 4.02)" gradientUnits="userSpaceOnUse"><stop offset="0.28" stop-color="#fff"/><stop offset="1" stop-color="#bf0005" stop-opacity="0"/></radialGradient></defs><title>in_session</title><g id="Layer_2" data-name="Layer 2"><g id="in_session"><polygon id="rays" class="cls-1" points="189.55 139.59 220.85 0.11 199.84 141.13 280.05 18.3 209.02 145.57 329.45 52.7 216.08 152.44 363.69 99.6 220.27 160.99 379.05 153.9 221.13 170.29 373.88 209.72 218.57 179.34 348.74 261.02 212.87 187.16 306.34 302.23 204.63 192.89 251.29 328.89 194.77 195.92 189.55 338.11 184.34 195.92 127.81 328.89 174.47 192.89 72.76 302.23 166.24 187.16 30.36 261.02 160.53 179.34 5.22 209.72 157.97 170.29 0.05 153.9 158.83 160.99 15.42 99.6 163.02 152.44 49.65 52.7 170.09 145.57 99.05 18.3 179.26 141.13 158.25 0.11 189.55 139.59"/><g id="base"><g id="base_4"><rect class="cls-2" x="175.8" y="281.61" width="28" height="40"/><path d="M203.3,282.11v39h-27v-39h27m1-1h-29v41h29v-41Z"/></g><polygon id="base_3" class="cls-3" points="268.55 341.75 111.05 341.75 152.05 329.11 228.05 329.11 268.55 341.75"/><rect id="base_2" class="cls-4" x="153.8" y="322.11" width="72" height="6"/><rect id="base_1" class="cls-5" x="176.2" y="316.11" width="26.85" height="6"/></g><g id="bulb"><rect class="cls-6" x="151.8" y="140.61" width="76" height="153" rx="36.28"/></g><path class="cls-7" d="M190.92,143.84a33.32,33.32,0,0,1,33.28,33.28v80.45a33.31,33.31,0,0,1-33.28,33.27h-3.44a33.31,33.31,0,0,1-33.28-33.27V177.12a33.32,33.32,0,0,1,33.28-33.28h3.44m0-3h-3.44a36.28,36.28,0,0,0-36.28,36.28v80.45a36.27,36.27,0,0,0,36.28,36.27h3.44a36.27,36.27,0,0,0,36.28-36.27V177.12a36.28,36.28,0,0,0-36.28-36.28Z"/><g id="glare_spot"><path class="cls-8" d="M205.61,179.56c16.36,37.07-8.82,53.55-25.09,53.55s-38.28-26.43-29.45-54.24c3.28-10.3,16.46-37.76,32.73-37.76S194.05,153.37,205.61,179.56Z"/></g></g></g></svg>