<svg xmlns="http://www.w3.org/2000/svg" viewBox="0 0 268.32 222.93"><defs><style>.cls-1{fill:#a66d1e;stroke:#000;stroke-miterlimit:10;}</style></defs><title>folder_plus</title><g id="Layer_2" data-name="Layer 2"><g id="folder_navigation"><path id="folder_maximize" class="cls-1" d="M266.69,13.19h-2.33a2.3,2.3,0,0,1-2.31-2.3V9.73A9.23,9.23,0,0,0,252.82.5H190.89a9.23,9.23,0,0,0-9.23,9.23v1.16a2.3,2.3,0,0,1-2.31,2.3H2.81A2.31,2.31,0,0,0,.5,15.5V220.12a2.3,2.3,0,0,0,2.31,2.31H264.36c1.27,0,2.3-1,3.46-2.31V14.32A1.13,1.13,0,0,0,266.69,13.19ZM211.47,134.74H151.66v59.81h-35V134.74H56.85v-35h59.81V39.92h35V99.73h59.81Z"/></g></g></svg>