<svg xmlns="http://www.w3.org/2000/svg" viewBox="0 0 408 408"><defs><style>.cls-1{fill:#477300;}.cls-2{fill:#bd1500;}.cls-2,.cls-3{stroke:#000;stroke-miterlimit:10;stroke-width:3px;}.cls-3{fill:#fff;}</style></defs><title>full_screen</title><g id="Layer_2" data-name="Layer 2"><g id="full_screen"><g id="outer_square"><rect class="cls-1" x="1.5" y="1.5" width="405" height="405"/><path d="M405,3V405H3V3H405m3-3H0V408H408V0Z"/></g><rect id="inner_square" class="cls-2" x="106.5" y="106.5" width="195" height="195"/><path id="cross_arrows" class="cls-3" d="M284.44,250.5,237.94,204l46.5-46.5,17,17,101.11-169-169,101.11,17,17L204,170.06l-46.5-46.5,17-17L5.48,5.48l101.11,169,17-17,46.5,46.5-46.5,46.5-17-17L5.48,402.52l169-101.11-17-17,46.5-46.5,46.5,46.5-17,17,169,101.11-101.11-169Z"/></g></g></svg>