<svg xmlns="http://www.w3.org/2000/svg" viewBox="0 0 230.53 230.53"><defs><style>.cls-1,.cls-3{fill:#fff;}.cls-2{stroke:#fff;}.cls-2,.cls-3{stroke-miterlimit:10;}.cls-3{stroke:#000;}</style></defs><title>popup</title><g id="Layer_2" data-name="Layer 2"><g id="popup_navigation"><path class="cls-1" d="M134.12,228.48c37.46-9.41,65.39-43.86,65.39-84.51a87.43,87.43,0,0,0-34.37-69.62,27,27,0,0,0,29.71-41.7,114.72,114.72,0,0,1-60.73,195.83Zm-50.82-3A114.77,114.77,0,1,1,185.58,24.62,27,27,0,0,0,153,66.6a85.29,85.29,0,0,0-39.46-9.68c-47.42,0-86,39.05-86,87.05A87,87,0,0,0,83.3,225.52Z"/><path d="M115.26,1a113.44,113.44,0,0,1,66.85,21.56,27.5,27.5,0,0,0-31.05,42.52,85.75,85.75,0,0,0-37.55-8.66C65.82,56.42,27,95.7,27,144a87.72,87.72,0,0,0,46.58,77.72A114.28,114.28,0,0,1,115.26,1m82.16,34.85A114.35,114.35,0,0,1,143.77,226,88,88,0,0,0,167.33,75.43a27.51,27.51,0,0,0,30.09-39.58M115.26,0a115.27,115.27,0,0,0-11.73,229.94C61,224.93,28,188.36,28,144c0-47.8,38.28-86.55,85.5-86.55a84.33,84.33,0,0,1,42.55,11.46,26.55,26.55,0,1,1,5.69,3.62A86.76,86.76,0,0,1,199,144c0,47.51-37.81,86.07-84.63,86.55h.88A115.27,115.27,0,1,0,115.26,0Z"/><path class="cls-1" d="M113.51,230.53h.87q-5.49,0-10.85-.58A86.68,86.68,0,0,0,113.51,230.53Z"/><path d="M103.53,229.94a86.68,86.68,0,0,0,10,.59h.87q-5.49,0-10.85-.58Z"/><path d="M114.38,230c-3.65,0-7.29-.22-10.8-.58-42.79-5-75.07-41.78-75.07-85.47,0-47.45,38.14-86,85-86a84.21,84.21,0,0,1,42.3,11.39A26.5,26.5,0,0,0,161.53,73,86.74,86.74,0,0,1,173.9,204.53,84,84,0,0,1,114.38,230Z"/><path class="cls-1" d="M113.51,58.42a83.73,83.73,0,0,1,42,11.28,27.25,27.25,0,0,0,5.75,3.67,86.24,86.24,0,0,1,12.3,130.82,83.48,83.48,0,0,1-59.15,25.33c-3.64,0-7.26-.22-10.74-.57C61.1,223.94,29,187.41,29,144c0-47.17,37.91-85.55,84.5-85.55m0-1C66.29,57.42,28,96.17,28,144c0,44.39,33,81,75.52,86q5.35.54,10.85.58C161.2,230,199,191.48,199,144A86.76,86.76,0,0,0,161.75,72.5a26.15,26.15,0,0,1-5.69-3.62,84.33,84.33,0,0,0-42.55-11.46Z"/><path class="cls-2" d="M173,75a26.52,26.52,0,1,0-16.95-6.14c1.95,1.13,3.84,2.34,5.69,3.62A26.35,26.35,0,0,0,173,75Z"/><path class="cls-3" d="M156.06,68.88a26.15,26.15,0,0,0,5.69,3.62C159.9,71.22,158,70,156.06,68.88Z"/></g></g></svg>