<svg xmlns="http://www.w3.org/2000/svg" xmlns:xlink="http://www.w3.org/1999/xlink" viewBox="0 0 413.24 365.81"><defs><style>.cls-1{fill:url(#radial-gradient);}.cls-2{fill:#a66d1e;}.cls-2,.cls-3,.cls-4,.cls-5,.cls-6{stroke:#000;stroke-miterlimit:10;}.cls-3{fill:#0000e7;}.cls-4{fill:#b9003e;}.cls-5{fill:#009102;}.cls-6{fill:#634112;}</style><radialGradient id="radial-gradient" cx="206.62" cy="200.49" r="182.26" gradientTransform="translate(0 -45.25) scale(1 1.14)" gradientUnits="userSpaceOnUse"><stop offset="0.52" stop-color="#fff"/><stop offset="0.54" stop-color="#fbf8d6"/><stop offset="0.57" stop-color="#f7f0aa"/><stop offset="0.6" stop-color="#f4e881"/><stop offset="0.63" stop-color="#f0e25e"/><stop offset="0.66" stop-color="#eedd41"/><stop offset="0.7" stop-color="#ecd829"/><stop offset="0.74" stop-color="#ead517"/><stop offset="0.79" stop-color="#e9d30a"/><stop offset="0.86" stop-color="#e8d102"/><stop offset="1" stop-color="#e8d100"/></radialGradient></defs><title>media_folder_now_playing</title><g id="Layer_2" data-name="Layer 2"><g id="folder_playing_now"><g id="star_badge"><polygon class="cls-1" points="171.79 268.88 104.83 341.36 141.2 252.96 50.76 300.45 118.53 228.6 15.52 245.42 106.48 198.77 3.29 182.9 106.48 167.04 15.52 120.39 118.53 137.2 50.76 65.36 141.2 112.85 104.83 24.44 171.79 96.93 171.25 2.64 206.62 91.39 241.99 2.64 241.45 96.93 308.41 24.44 272.04 112.85 362.48 65.36 294.71 137.2 397.72 120.39 306.76 167.04 409.95 182.9 306.76 198.77 397.72 245.42 294.71 228.6 362.48 300.45 272.04 252.96 308.41 341.36 241.45 268.88 241.99 363.16 206.62 274.42 171.25 363.16 171.79 268.88"/><path d="M241.47,5.29,241,95.64v2.57l1.75-1.89,64.2-69.49L272.1,111.39l-1.05,2.54,2.44-1.28,86.58-45.46-64.71,68.6-2,2.14,2.91-.47,98.42-16.07-86.77,44.5-2.74,1.41,3,.47,98.45,15.13L308.21,198l-3,.47,2.74,1.41,86.77,44.49-98.42-16.06-2.91-.48,2,2.15,64.71,68.6-86.58-45.47-2.44-1.27,1.05,2.54L306.89,339l-64.2-69.49-1.75-1.9v2.58l.52,90.35L207.55,275.4l-.93-2.34-.93,2.34-33.92,85.12.52-90.35v-2.58l-1.75,1.9L106.35,339l34.79-84.56,1.05-2.54-2.44,1.27L53.17,298.62,117.88,230l2-2.15-2.92.48L18.57,244.41l86.77-44.49,2.74-1.41-3-.47L6.58,182.9,105,167.77l3-.47-2.74-1.41-86.77-44.5L117,137.46l2.92.47-2-2.14L53.17,67.19l86.58,45.46,2.44,1.28-1.05-2.54L106.35,26.83l64.2,69.49,1.75,1.89V95.64l-.52-90.35,33.92,85.12.93,2.33.93-2.33L241.47,5.29m1-5.29L206.62,90,170.74,0l.55,95.64-68-73.58,36.9,89.71L48.34,63.52l68.81,72.95L12.46,119.38l92.42,47.4L0,182.9,104.88,199,12.46,246.42l104.69-17.09L48.34,302.28,140.21,254l-36.9,89.71,68-73.58-.55,95.64,35.88-90,35.88,90L242,270.17l68,73.58L273,254l91.87,48.24-68.81-72.95,104.69,17.09L308.36,199,413.24,182.9,308.36,166.78l92.42-47.4L296.09,136.47,364.9,63.52,273,111.77l36.9-89.71L242,95.64,242.5,0Z"/></g><path id="folder_front" class="cls-2" d="M313.08,98.8h-1.92a1.89,1.89,0,0,1-1.88-1.89V96a7.55,7.55,0,0,0-7.55-7.55H251.1A7.55,7.55,0,0,0,243.55,96v.94a1.89,1.89,0,0,1-1.89,1.89H97.32a1.89,1.89,0,0,0-1.89,1.88V268a1.89,1.89,0,0,0,1.89,1.89H311.16c1,0,1.89-.84,2.83-1.89V99.71A.91.91,0,0,0,313.08,98.8Z"/><rect id="pic_3" class="cls-3" x="92.73" y="117.01" width="186.02" height="125.67" transform="translate(-44.41 62.06) rotate(-16.97)"/><rect id="pic_2" class="cls-4" x="113.67" y="117.68" width="186.02" height="136.07" transform="translate(32.88 -31.08) rotate(9.34)"/><rect id="pic_1" class="cls-5" x="133.62" y="126.3" width="186.02" height="91.64" transform="translate(-3.49 4.7) rotate(-1.18)"/><path id="folder_front-2" data-name="folder_front" class="cls-6" d="M364.62,142.33H152.46c-2,0-4.21,1.24-4.85,2.76L95.84,267.34c-.64,1.52.49,2.75,2.52,2.75H310.41a5.89,5.89,0,0,0,2.76-1,2.08,2.08,0,0,0,.89-.93l52.42-123.79C367,143.24,366.12,142.33,364.62,142.33Z"/></g></g></svg>