<svg xmlns="http://www.w3.org/2000/svg" viewBox="0 0 230.53 230.53"><title>move</title><g id="Layer_2" data-name="Layer 2"><g id="widget_navigation"><g id="move"><path d="M50.87,93.35,43.78,110c21.43-1.62,42.86-2.31,64.28-2.48.18-21.26.87-42.52,2.47-63.78L93.85,50.87,115.31,0h0A115.25,115.25,0,0,0,0,114.81Z"/><path d="M115.72,0l21.46,50.86-16.69-7.09C122.1,65,122.79,86.3,123,107.56c21.09.17,42.18.86,63.27,2.45l-7.08-16.66L230.51,115l-51.35,21.66L186.24,120c-21.09,1.59-42.18,2.28-63.27,2.45-.16,21.26-.84,42.51-2.45,63.77l16.66-7.08-21.67,51.36L93.85,179.16l16.66,7.08c-1.61-21.26-2.29-42.51-2.45-63.77-21.43-.17-42.85-.86-64.28-2.47l7.09,16.68L0,115.22v0A115.27,115.27,0,1,0,115.72,0Z"/></g></g></g></svg>