<svg xmlns="http://www.w3.org/2000/svg" viewBox="0 0 230.53 230.53"><defs><style>.cls-1{fill:#fff;}</style></defs><title>plus</title><g id="Layer_2" data-name="Layer 2"><g id="widget_navigation"><g id="plus"><path d="M2.29,138.22a115.39,115.39,0,0,0,90,90v-90Z"/><path d="M138.22,228.24a115.39,115.39,0,0,0,90-90h-90Z"/><path d="M92.31,2.29a115.39,115.39,0,0,0-90,90h90Z"/><path d="M228.24,92.31a115.39,115.39,0,0,0-90-90v90Z"/><path class="cls-1" d="M228.24,92.31h-90v-90a116.2,116.2,0,0,0-45.91,0v90h-90a116.2,116.2,0,0,0,0,45.91h90v90a116.2,116.2,0,0,0,45.91,0v-90h90a116.2,116.2,0,0,0,0-45.91Z"/></g></g></g></svg>