<?xml version="1.0" encoding="utf-8"?>
<!-- Generator: Adobe Illustrator 17.0.1, SVG Export Plug-In . SVG Version: 6.00 Build 0)  -->
<!DOCTYPE svg PUBLIC "-//W3C//DTD SVG 1.1//EN" "http://www.w3.org/Graphics/SVG/1.1/DTD/svg11.dtd">
<svg version="1.1" id="Layer_1" xmlns="http://www.w3.org/2000/svg" xmlns:xlink="http://www.w3.org/1999/xlink" x="0px" y="0px"
	 width="150px" height="150px" viewBox="0 0 150 150" enable-background="new 0 0 150 150" xml:space="preserve">
<g>
	<polygon fill="none" points="0,0 0,149.8 148.8,0 	"/>
	<polygon fill="#EAEAEA" points="121.4,150 149,150 149,122.4 	"/>
	<polygon fill="#EAEAEA" points="149,4.4 3.4,150 29.8,150 149,30.8 	"/>
	<polygon fill="#C2C2C2" points="137,13.3 149,1.3 149,1.2 	"/>
	<polygon fill="#EAEAEA" points="149,92.9 91.9,150 118.3,150 149,119.3 	"/>
	<polygon fill="#EAEAEA" points="149,63.4 62.4,150 88.8,150 149,89.8 	"/>
	<polygon fill="#EAEAEA" points="149,33.9 32.9,150 59.3,150 149,60.3 	"/>
	
		<line fill="none" stroke="#C2C2C2" stroke-width="0" stroke-linecap="round" stroke-linejoin="round" x1="62" y1="150" x2="89" y2="150"/>
	
		<line fill="none" stroke="#C2C2C2" stroke-width="0" stroke-linecap="round" stroke-linejoin="round" x1="121" y1="150" x2="149" y2="150"/>
	
		<line fill="none" stroke="#C2C2C2" stroke-width="0" stroke-linecap="round" stroke-linejoin="round" x1="3" y1="150" x2="30" y2="150"/>
	
		<line fill="none" stroke="#C2C2C2" stroke-width="0" stroke-linecap="round" stroke-linejoin="round" x1="33" y1="150" x2="59" y2="150"/>
	
		<line fill="none" stroke="#C2C2C2" stroke-width="0" stroke-linecap="round" stroke-linejoin="round" x1="92" y1="150" x2="118" y2="150"/>
	<polygon fill="#C2C2C2" points="149,89.8 150,88.8 150,62.4 149,63.4 	"/>
	<polygon fill="#C2C2C2" points="149,30.8 150,29.8 150,3.4 149,4.4 	"/>
	<polygon fill="#C2C2C2" points="149,119.3 150,118.3 150,91.9 149,92.9 	"/>
	<polygon fill="#C2C2C2" points="149,122.4 149,150 150,150 150,121.4 	"/>
	<polygon fill="#C2C2C2" points="149,60.3 150,59.3 150,32.9 149,33.9 	"/>
	<polygon fill="#C2C2C2" points="137,13.3 149,1.2 149,1.3 150,0.3 150,0 148.8,0 0,149.8 0,150 0.3,150 	"/>
	<polygon points="150,32.9 150,31.2 31.2,150 32.9,150 149,33.9 	"/>
	<polygon points="150,62.4 150,60.7 60.7,150 62.4,150 149,63.4 	"/>
	<polygon points="150,3.4 150,1.7 1.7,150 3.4,150 149,4.4 	"/>
	<polygon points="150,121.4 150,119.7 119.7,150 121.4,150 149,122.4 	"/>
	<polygon points="150,91.9 150,90.2 90.2,150 91.9,150 149,92.9 	"/>
	<polygon fill="#FFFFFF" points="150,31.2 150,29.8 149,30.8 29.8,150 31.2,150 	"/>
	<polygon fill="#FFFFFF" points="150,60.7 150,59.3 149,60.3 59.3,150 60.7,150 	"/>
	<polygon fill="#FFFFFF" points="150,1.7 150,0.3 149,1.3 137,13.3 0.3,150 1.2,150 1.7,150 	"/>
	<polygon fill="#FFFFFF" points="150,119.7 150,118.3 149,119.3 118.3,150 119.7,150 	"/>
	<polygon fill="#FFFFFF" points="150,90.2 150,88.8 149,89.8 88.8,150 90.2,150 	"/>
</g>
</svg>
