<?xml version="1.0" encoding="utf-8"?>
<!-- Generator: Adobe Illustrator 17.1.0, SVG Export Plug-In . SVG Version: 6.00 Build 0)  -->
<!DOCTYPE svg PUBLIC "-//W3C//DTD SVG 1.1//EN" "http://www.w3.org/Graphics/SVG/1.1/DTD/svg11.dtd">
<svg version="1.1" id="Target" xmlns="http://www.w3.org/2000/svg" xmlns:xlink="http://www.w3.org/1999/xlink" x="0px" y="0px"
	 viewBox="0 0 24 24" enable-background="new 0 0 24 24" xml:space="preserve">
<radialGradient id="SVGID_1_" cx="5.9964" cy="5.9964" r="12.1441" gradientTransform="matrix(0.9881 0 0 0.9881 6.0747 6.0747)" gradientUnits="userSpaceOnUse">
	<stop  offset="0" style="stop-color:#000000"/>
	<stop  offset="0.2266" style="stop-color:#00005A"/>
	<stop  offset="0.2632" style="stop-color:#0A226E"/>
	<stop  offset="0.325" style="stop-color:#18558D"/>
	<stop  offset="0.3859" style="stop-color:#2480A6"/>
	<stop  offset="0.4446" style="stop-color:#2EA1BA"/>
	<stop  offset="0.5005" style="stop-color:#35B9C8"/>
	<stop  offset="0.5524" style="stop-color:#39C7D1"/>
	<stop  offset="0.5965" style="stop-color:#3ACCD4"/>
	<stop  offset="0.9507" style="stop-color:#FF9219"/>
</radialGradient>
<circle fill="url(#SVGID_1_)" cx="12" cy="12" r="12"/>
<radialGradient id="SVGID_2_" cx="11.9883" cy="12.0017" r="10.0743" gradientUnits="userSpaceOnUse">
	<stop  offset="0" style="stop-color:#000000"/>
	<stop  offset="0.2266" style="stop-color:#00005A"/>
	<stop  offset="0.4926" style="stop-color:#3ACCD4"/>
	<stop  offset="0.9507" style="stop-color:#FF9219"/>
</radialGradient>
<path fill="none" stroke="url(#SVGID_2_)" stroke-width="0.3011" stroke-miterlimit="10" d="M12,0.14c0,0-0.16,0.24-1.65,0.86
	C6.97,2.46,4.22,5.84,4.38,9.66c0.09,2.29,1.34,4.68,3.54,5.58c1,0.39,2.13,0.46,3.15,0c1.04-0.46,1.9-1.83,1.09-2.78
	c-0.97-1.18-0.86-2.9,0.53-3.59c2.64-1.32,5.58,0.74,6.49,3.29c1.55,4.38-1.37,9.13-5.43,10.8c-1.58,0.65-1.75,0.9-1.75,0.9"/>
<radialGradient id="SVGID_3_" cx="11.9981" cy="12.0097" r="10.0744" gradientUnits="userSpaceOnUse">
	<stop  offset="0" style="stop-color:#000000"/>
	<stop  offset="0.2266" style="stop-color:#00005A"/>
	<stop  offset="0.4926" style="stop-color:#3ACCD4"/>
	<stop  offset="0.9507" style="stop-color:#FF9219"/>
</radialGradient>
<path fill="none" stroke="url(#SVGID_3_)" stroke-width="0.3011" stroke-miterlimit="10" d="M0.14,12c0,0,0.24,0.17,0.89,1.75
	c1.45,3.36,4.83,6.01,8.61,5.87c1.92-0.07,3.78-0.88,4.98-2.5c0.83-1.16,1.13-2.57,0.69-3.91c-0.39-1.2-1.81-2.2-2.96-1.37
	c-0.79,0.56-1.67,0.97-2.55,0.46c-1.09-0.63-1.51-1.92-1.37-3.13c0.28-2.25,2.08-3.89,4.19-4.49c4.35-1.25,8.73,1.76,10.36,5.67
	c0.63,1.49,0.87,1.65,0.87,1.65"/>
<radialGradient id="SVGID_4_" cx="12.003" cy="12.0387" r="9.1564" gradientUnits="userSpaceOnUse">
	<stop  offset="0" style="stop-color:#000000"/>
	<stop  offset="0.2266" style="stop-color:#00005A"/>
	<stop  offset="0.4926" style="stop-color:#3ACCD4"/>
	<stop  offset="0.9507" style="stop-color:#FF9219"/>
</radialGradient>
<path fill="none" stroke="url(#SVGID_4_)" stroke-width="0.3011" stroke-miterlimit="10" d="M20.39,3.61c0,0-0.28,0.06-1.76-0.54
	c-2.38-0.89-5.05-1.01-7.46-0.08C7.78,4.26,5.24,8.32,7,11.79c0.53,1.02,1.41,1.83,2.59,2.02c0.93,0.16,2.02-0.25,2.22-1.2
	c0.23-1.09,0.6-2.22,1.81-2.36c1.04-0.12,1.99,0.35,2.69,1.09c1.02,1.11,1.37,2.59,1.16,4.08c-0.3,2.11-1.53,3.85-3.36,4.98
	c-2.64,1.62-5.84,1.71-8.6,0.62c-1.6-0.67-1.89-0.62-1.89-0.62"/>
<radialGradient id="SVGID_5_" cx="11.9833" cy="12.0001" r="9.1652" gradientUnits="userSpaceOnUse">
	<stop  offset="0" style="stop-color:#000000"/>
	<stop  offset="0.2266" style="stop-color:#00005A"/>
	<stop  offset="0.4926" style="stop-color:#3ACCD4"/>
	<stop  offset="0.9507" style="stop-color:#FF9219"/>
</radialGradient>
<path fill="none" stroke="url(#SVGID_5_)" stroke-width="0.3011" stroke-miterlimit="10" d="M3.61,3.61c0,0,0.05,0.29-0.59,1.82
	c-1.24,3.09-1.01,6.79,1.17,9.5c1.6,1.97,4.08,3.08,6.58,2.43c1.67-0.44,3.2-1.9,2.96-3.73c-0.16-1.18-1.27-1.51-2.29-1.74
	c-1.2-0.28-1.55-1.74-1.13-2.8c0.93-2.39,3.87-3.1,6.14-2.34c4.75,1.58,6.32,7.5,4.52,11.79c-0.63,1.54-0.58,1.83-0.58,1.83"/>
<radialGradient id="SVGID_6_" cx="11.9833" cy="12.001" r="9.951" gradientUnits="userSpaceOnUse">
	<stop  offset="0" style="stop-color:#000000"/>
	<stop  offset="0.2266" style="stop-color:#00005A"/>
	<stop  offset="0.4926" style="stop-color:#3ACCD4"/>
	<stop  offset="0.9507" style="stop-color:#FF9219"/>
</radialGradient>
<path fill="none" stroke="url(#SVGID_6_)" stroke-width="0.3011" stroke-miterlimit="10" d="M7.46,1.04c0,0-0.06,0.29-1.22,1.44
	c-2.12,2.17-3.32,5.25-2.77,8.35c0.32,1.95,1.27,3.61,2.96,4.75c1.74,1.18,3.98,1.41,5.63,0.05c0.9-0.76,1.41-2.2,0.49-3.06
	c-0.79-0.74-1.95-1.34-1.64-2.64c0.3-1.34,1.48-2.15,2.78-2.39c3.57-0.6,6.42,2.52,6.86,5.84c0.39,2.99-0.72,5.98-2.75,8.08
	c-1.2,1.2-1.26,1.49-1.26,1.49"/>
<radialGradient id="SVGID_7_" cx="11.9972" cy="12.0193" r="9.9595" gradientUnits="userSpaceOnUse">
	<stop  offset="0" style="stop-color:#000000"/>
	<stop  offset="0.2266" style="stop-color:#00005A"/>
	<stop  offset="0.4926" style="stop-color:#3ACCD4"/>
	<stop  offset="0.9507" style="stop-color:#FF9219"/>
</radialGradient>
<path fill="none" stroke="url(#SVGID_7_)" stroke-width="0.3011" stroke-miterlimit="10" d="M1.04,16.54c0,0,0.29,0.07,1.5,1.29
	c1.69,1.65,3.96,2.65,6.33,2.83c3.01,0.21,6.18-1.39,7.3-4.31c0.63-1.62,0.42-3.61-0.95-4.79c-0.65-0.56-1.58-0.81-2.36-0.42
	c-0.6,0.28-0.81,0.93-1.25,1.39c-0.42,0.49-1.04,0.67-1.67,0.56c-1.67-0.32-2.5-2.02-2.5-3.57c0-1.62,0.79-3.13,1.99-4.24
	c3.52-3.17,8.99-2.13,12.1,1c1.14,1.13,1.43,1.18,1.43,1.18"/>
<radialGradient id="SVGID_8_" cx="11.9883" cy="12.0015" r="9.1661" gradientUnits="userSpaceOnUse">
	<stop  offset="0" style="stop-color:#000000"/>
	<stop  offset="0.2266" style="stop-color:#00005A"/>
	<stop  offset="0.4926" style="stop-color:#3ACCD4"/>
	<stop  offset="0.9507" style="stop-color:#FF9219"/>
</radialGradient>
<path fill="none" stroke="url(#SVGID_8_)" stroke-width="0.3011" stroke-miterlimit="10" d="M16.54,1.04c0,0-0.24,0.16-1.84,0.17
	c-4.64-0.05-9.48,3.61-9.27,8.54c0.09,2.43,1.95,5.05,4.59,4.89c0.83-0.05,1.62-0.51,1.95-1.3c0.23-0.58,0.02-1.13-0.07-1.74
	c-0.16-0.86,0.39-1.64,1.16-1.97c2.34-1,4.73,1.04,5.3,3.34c0.69,2.71-0.35,5.47-2.39,7.3c-1.83,1.62-4.15,2.5-6.52,2.53
	c-1.73-0.01-1.98,0.15-1.98,0.15"/>
<radialGradient id="SVGID_9_" cx="11.9993" cy="12.0114" r="9.1654" gradientUnits="userSpaceOnUse">
	<stop  offset="0" style="stop-color:#000000"/>
	<stop  offset="0.2266" style="stop-color:#00005A"/>
	<stop  offset="0.4926" style="stop-color:#3ACCD4"/>
	<stop  offset="0.9507" style="stop-color:#FF9219"/>
</radialGradient>
<path fill="none" stroke="url(#SVGID_9_)" stroke-width="0.3011" stroke-miterlimit="10" d="M1.04,7.46c0,0,0.16,0.25,0.15,1.94
	c-0.01,4.39,3.25,8.97,7.86,9.18c1.97,0.07,4.03-0.72,5.05-2.52c0.67-1.2,0.79-2.85-0.42-3.78c-0.76-0.6-1.62-0.14-2.46-0.14
	c-1.41,0-2.13-1.6-1.88-2.9c0.39-2.08,2.18-3.38,4.17-3.71c2.76-0.46,5.33,0.76,7.04,2.9c1.44,1.83,2.18,3.98,2.22,6.22
	c0.01,1.64,0.17,1.88,0.17,1.88"/>
<radialGradient id="SVGID_10_" cx="11.9869" cy="12.001" r="10.139" gradientUnits="userSpaceOnUse">
	<stop  offset="0" style="stop-color:#000000"/>
	<stop  offset="0.2266" style="stop-color:#00005A"/>
	<stop  offset="0.4926" style="stop-color:#3ACCD4"/>
	<stop  offset="0.9507" style="stop-color:#FF9219"/>
</radialGradient>
<path fill="none" stroke="url(#SVGID_10_)" stroke-width="0.3011" stroke-miterlimit="10" d="M9.71,0.37c0,0-0.11,0.27-1.47,1.17
	C6.07,2.99,4.52,5.24,3.99,7.9c-0.67,3.34,0.93,7.06,4.33,7.97c1.02,0.28,2.06,0.21,3.01-0.28c1.09-0.58,1.9-2.06,1-3.06
	c-0.69-0.79-1.48-1.67-1.02-2.73c0.65-1.48,2.36-2.04,3.89-1.78c1.67,0.28,2.99,1.34,3.87,2.76c1.23,2.04,1.37,4.42,0.6,6.6
	c-0.72,2.04-2.04,3.82-3.81,5.04c-1.41,0.94-1.52,1.22-1.52,1.22"/>
<radialGradient id="SVGID_11_" cx="12.0119" cy="12.0241" r="10.1394" gradientUnits="userSpaceOnUse">
	<stop  offset="0" style="stop-color:#000000"/>
	<stop  offset="0.2266" style="stop-color:#00005A"/>
	<stop  offset="0.4926" style="stop-color:#3ACCD4"/>
	<stop  offset="0.9507" style="stop-color:#FF9219"/>
</radialGradient>
<path fill="none" stroke="url(#SVGID_11_)" stroke-width="0.3011" stroke-miterlimit="10" d="M0.39,14.31c0,0,0.28,0.17,1.24,1.62
	c1.33,1.93,3.3,3.3,5.57,3.95c2.99,0.83,6.44-0.12,8.11-2.9c0.86-1.44,1.02-3.17,0.05-4.63c-0.67-1.02-2.13-1.55-3.03-0.63
	c-0.63,0.65-1.37,1.27-2.34,1.02c-0.72-0.21-1.23-0.72-1.6-1.34c-0.53-0.97-0.58-2.08-0.28-3.13c0.6-2.06,2.32-3.5,4.33-4.08
	c3.87-1.13,7.9,0.95,10.06,4.1c0.88,1.29,1.15,1.4,1.15,1.4"/>
<radialGradient id="SVGID_12_" cx="12.0318" cy="12.0371" r="8.7258" gradientUnits="userSpaceOnUse">
	<stop  offset="0" style="stop-color:#000000"/>
	<stop  offset="0.2266" style="stop-color:#00005A"/>
	<stop  offset="0.4926" style="stop-color:#3ACCD4"/>
	<stop  offset="0.9507" style="stop-color:#FF9219"/>
</radialGradient>
<path fill="none" stroke="url(#SVGID_12_)" stroke-width="0.3011" stroke-miterlimit="10" d="M18.61,2.14c0,0-0.26,0.11-1.81-0.18
	c-3.88-0.7-8.35,0.78-10.18,4.51c-1.2,2.43-0.93,5.77,1.58,7.3c0.86,0.51,1.88,0.65,2.76,0.21c0.49-0.25,0.97-0.74,0.93-1.27
	c-0.14-1.51,0.72-3.08,2.39-2.92c2.69,0.3,4.08,3.15,3.73,5.63c-0.65,4.93-6.05,7.62-10.55,6.71c-1.71-0.34-2.01-0.25-2.01-0.25"/>
<radialGradient id="SVGID_13_" cx="11.9824" cy="12.0024" r="8.7308" gradientUnits="userSpaceOnUse">
	<stop  offset="0" style="stop-color:#000000"/>
	<stop  offset="0.2266" style="stop-color:#00005A"/>
	<stop  offset="0.4926" style="stop-color:#3ACCD4"/>
	<stop  offset="0.9507" style="stop-color:#FF9219"/>
</radialGradient>
<path fill="none" stroke="url(#SVGID_13_)" stroke-width="0.3011" stroke-miterlimit="10" d="M2.16,5.41c0,0,0.11,0.28-0.24,1.96
	c-0.9,4.36,1.35,9.57,6.14,10.56c1.76,0.35,3.54,0.05,4.86-1.18c0.79-0.74,1.3-1.71,1.23-2.8c-0.05-1.23-1.2-2.11-2.46-1.9
	c-0.65,0.12-1.23-0.28-1.58-0.81c-0.53-0.81-0.49-1.78-0.09-2.62C11.21,6,14.57,5.4,17.07,6.44c3.96,1.62,5.74,6.28,5,10.29
	c-0.3,1.59-0.19,1.85-0.19,1.85"/>
<radialGradient id="SVGID_14_" cx="11.9901" cy="11.9992" r="9.596" gradientUnits="userSpaceOnUse">
	<stop  offset="0" style="stop-color:#000000"/>
	<stop  offset="0.2266" style="stop-color:#00005A"/>
	<stop  offset="0.4926" style="stop-color:#3ACCD4"/>
	<stop  offset="0.9507" style="stop-color:#FF9219"/>
</radialGradient>
<path fill="none" stroke="url(#SVGID_14_)" stroke-width="0.3011" stroke-miterlimit="10" d="M5.43,2.14c0,0,0,0.29-0.94,1.68
	c-1.8,2.76-2.29,6.44-0.76,9.45c0.86,1.64,2.27,2.96,4.08,3.52c1.58,0.49,3.34,0.28,4.59-0.86c0.81-0.74,1.3-1.95,0.74-2.96
	c-0.3-0.56-0.88-0.81-1.46-1.02c-0.65-0.21-1.09-0.86-1.16-1.55c-0.09-1.09,0.51-2.04,1.41-2.66c1.51-1.04,3.34-0.97,4.91-0.28
	c1.69,0.76,2.99,2.2,3.68,3.89c1.18,2.9,0.65,6.25-1,8.84c-0.91,1.38-0.91,1.67-0.91,1.67"/>
<radialGradient id="SVGID_15_" cx="12.0133" cy="12.0192" r="9.6024" gradientUnits="userSpaceOnUse">
	<stop  offset="0" style="stop-color:#000000"/>
	<stop  offset="0.2266" style="stop-color:#00005A"/>
	<stop  offset="0.4926" style="stop-color:#3ACCD4"/>
	<stop  offset="0.9507" style="stop-color:#FF9219"/>
</radialGradient>
<path fill="none" stroke="url(#SVGID_15_)" stroke-width="0.3011" stroke-miterlimit="10" d="M2.16,18.59c0,0,0.33,0.05,1.77,1.02
	c2.57,1.68,5.96,2.1,8.83,0.89c2.18-0.93,3.91-2.87,4.22-5.28c0.25-1.95-0.67-4.19-2.8-4.61c-1.32-0.25-2.06,0.86-2.48,1.92
	c-0.35,0.88-1.48,1.11-2.34,0.79c-2.62-1-2.99-4.42-1.69-6.67c2.59-4.47,8.73-4.77,12.62-2.09c1.31,0.86,1.59,0.85,1.59,0.85"/>
<radialGradient id="SVGID_16_" cx="11.9863" cy="12.002" r="9.7544" gradientUnits="userSpaceOnUse">
	<stop  offset="0" style="stop-color:#000000"/>
	<stop  offset="0.2266" style="stop-color:#00005A"/>
	<stop  offset="0.4926" style="stop-color:#3ACCD4"/>
	<stop  offset="0.9507" style="stop-color:#FF9219"/>
</radialGradient>
<path fill="none" stroke="url(#SVGID_16_)" stroke-width="0.3011" stroke-miterlimit="10" d="M14.34,0.37c0,0-0.2,0.21-1.77,0.52
	c-3.28,0.73-6.36,3-7.35,6.36c-0.74,2.46-0.23,5.23,1.85,6.9c1.32,1.04,3.29,1.41,4.59,0.19c0.49-0.49,0.74-1.25,0.44-1.88
	c-0.42-0.86-0.65-1.88,0.02-2.64c0.97-1.09,2.62-1.11,3.87-0.53c2.18,1.04,3.24,3.5,3.08,5.84c-0.25,3.98-3.68,7.16-7.44,7.96
	c-1.7,0.34-1.91,0.54-1.91,0.54"/>
<radialGradient id="SVGID_17_" cx="12.0186" cy="12.0148" r="9.7548" gradientUnits="userSpaceOnUse">
	<stop  offset="0" style="stop-color:#000000"/>
	<stop  offset="0.2266" style="stop-color:#00005A"/>
	<stop  offset="0.4926" style="stop-color:#3ACCD4"/>
	<stop  offset="0.9507" style="stop-color:#FF9219"/>
</radialGradient>
<path fill="none" stroke="url(#SVGID_17_)" stroke-width="0.3011" stroke-miterlimit="10" d="M0.39,9.69c0,0,0.2,0.23,0.53,1.94
	c0.84,4.64,5.66,8.67,10.48,7.16c2.13-0.67,3.94-2.64,3.61-4.98c-0.16-1.18-1.2-2.34-2.41-1.95c-0.97,0.32-2.04,0.79-2.9-0.05
	c-1.32-1.32-0.97-3.4,0.14-4.77c0.88-1.09,2.06-1.71,3.43-1.97c4.86-1,8.99,3.06,9.85,7.49c0.32,1.55,0.53,1.75,0.53,1.75"/>
</svg>
