<?xml version="1.0" encoding="utf-8"?>
<!-- Generator: Adobe Illustrator 17.1.0, SVG Export Plug-In . SVG Version: 6.00 Build 0)  -->
<!DOCTYPE svg PUBLIC "-//W3C//DTD SVG 1.1//EN" "http://www.w3.org/Graphics/SVG/1.1/DTD/svg11.dtd">
<svg version="1.1" id="Layer_1" xmlns="http://www.w3.org/2000/svg" xmlns:xlink="http://www.w3.org/1999/xlink" x="0px" y="0px"
	 viewBox="0 0 200 20" enable-background="new 0 0 200 20" xml:space="preserve">
<g>
	<path fill="#C7C7C7" d="M12.2,3.9H4.4v4H11v1.6H4.4v6.1H2.3V2.3h9.9V3.9z"/>
	<path fill="#C7C7C7" d="M16.2,4.4h-2V2.3h2V4.4z M16.2,15.7h-2V6h2V15.7z"/>
	<path fill="#C7C7C7" d="M21.2,15.7h-2V2.3h2V15.7z"/>
	<path fill="#C7C7C7" d="M25.7,11.3c0.2,2,1.3,3.1,3.1,3.1c1.3,0,2.1-0.5,2.6-1.7h1.9c-0.5,2-2.2,3.2-4.6,3.2c-3,0-5.1-2.1-5.1-5.1
		s2-5.1,5-5.1c2.1,0,3.7,1,4.4,2.9c0.3,0.7,0.4,1.5,0.4,2.7H25.7z M31.4,9.9c-0.1-1.8-1.1-2.8-2.7-2.8c-1.7,0-2.9,1.1-3,2.8H31.4z"
		/>
	<path fill="#C7C7C7" d="M49.5,15.7v-1.1c-1.1,1-1.9,1.4-3.4,1.4c-1.3,0-2.3-0.4-2.9-1.1c-0.5-0.6-0.7-1.3-0.7-2.4V6h2v6.3
		c0,1.3,0.7,2,2.1,2c1.7,0,2.8-0.9,2.8-2.4V6h2v9.7H49.5z"/>
	<path fill="#C7C7C7" d="M56.5,5.9v1.1c1-0.9,1.9-1.3,3.3-1.3c2.9,0,4.7,2,4.7,5.2c0,3.1-1.8,5-4.6,5c-1.4,0-2.6-0.5-3.4-1.4v4.2h-2
		V5.9H56.5z M56.4,10.7c0,2.4,1.1,3.6,3,3.6c1.9,0,3-1.3,3-3.6s-1.1-3.6-3-3.6C57.5,7.2,56.4,8.5,56.4,10.7z"/>
	<path fill="#C7C7C7" d="M68.9,15.7h-2V2.3h2V15.7z"/>
	<path fill="#C7C7C7" d="M81.6,10.9c0,3-2.1,5-5.2,5c-3.1,0-5.1-2.1-5.1-5.1c0-3,2.1-5.1,5.1-5.1C79.6,5.7,81.6,7.7,81.6,10.9z
		 M73.4,10.8c0,2.3,1.1,3.6,3.1,3.6c1.9,0,3.1-1.3,3.1-3.5c0-2.3-1.1-3.6-3.1-3.6C74.5,7.2,73.4,8.6,73.4,10.8z"/>
	<path fill="#C7C7C7" d="M84,9.2c0.1-1.1,0.3-1.8,0.9-2.4c0.7-0.7,2-1.1,3.5-1.1c2.7,0,4.2,1.1,4.2,3.2v4.6c0,0.8,0.1,0.9,0.6,0.9
		c0.2,0,0.3,0,0.5-0.1v1.4c-0.5,0.1-0.9,0.1-1.3,0.1c-1,0-1.4-0.4-1.6-1.3c-1.1,1-2.3,1.4-3.7,1.4c-2.1,0-3.5-1.2-3.5-2.9
		c0-1.6,1.1-2.5,3.2-2.9l2.4-0.4c1.3-0.2,1.5-0.4,1.5-1c0-0.9-0.9-1.5-2.3-1.5c-1,0-1.9,0.3-2.1,0.8c-0.2,0.3-0.2,0.5-0.2,1.2H84z
		 M90.7,10.7c-0.4,0.1-0.7,0.2-1.3,0.4l-2.1,0.4c-1.2,0.3-1.8,0.7-1.8,1.5c0,0.9,0.8,1.5,2,1.5c1.7,0,3.1-1.1,3.1-2.5V10.7z"/>
	<path fill="#C7C7C7" d="M105.1,15.7h-2v-1c-1,0.9-2,1.3-3.4,1.3c-2.9,0-4.6-2-4.6-5.2c0-3.1,1.8-5.1,4.6-5.1c1.4,0,2.4,0.4,3.4,1.3
		V2.3h2V15.7z M97.1,10.8c0,2.3,1.1,3.6,3,3.6c1.9,0,3.1-1.3,3.1-3.5c0-2.3-1.1-3.6-3.1-3.6C98.2,7.2,97.1,8.5,97.1,10.8z"/>
	<path fill="#C7C7C7" d="M116.7,5.9v1.1c1-0.9,1.9-1.3,3.3-1.3c2.9,0,4.7,2,4.7,5.2c0,3.1-1.8,5-4.6,5c-1.4,0-2.6-0.5-3.4-1.4v4.2
		h-2V5.9H116.7z M116.6,10.7c0,2.4,1.1,3.6,3,3.6c1.9,0,3-1.3,3-3.6s-1.1-3.6-3-3.6C117.7,7.2,116.6,8.5,116.6,10.7z"/>
	<path fill="#C7C7C7" d="M129,6v1.5c0.4-0.6,0.6-0.8,0.9-1c0.5-0.5,1.3-0.8,1.9-0.8c0.4,0,0.8,0.1,1.1,0.2v1.7
		c-0.4-0.1-0.6-0.1-0.9-0.1c-1.6,0-2.9,1.3-2.9,3.1v5.1h-2V6H129z"/>
	<path fill="#C7C7C7" d="M144.3,10.9c0,3-2.1,5-5.2,5c-3.1,0-5.1-2.1-5.1-5.1c0-3,2.1-5.1,5.1-5.1C142.3,5.7,144.3,7.7,144.3,10.9z
		 M136.1,10.8c0,2.3,1.1,3.6,3.1,3.6c1.9,0,3.1-1.3,3.1-3.5c0-2.3-1.1-3.6-3.1-3.6C137.2,7.2,136.1,8.6,136.1,10.8z"/>
	<path fill="#C7C7C7" d="M155.9,6v9.3c0,1.3-0.3,2.1-1.1,2.7c-0.8,0.7-2.1,1-3.7,1c-1.6,0-2.8-0.4-3.6-1.1c-0.5-0.4-0.7-0.9-0.8-1.8
		h1.9c0.1,0.9,0.9,1.4,2.5,1.4c1.9,0,2.8-0.7,2.8-2.4v-1.1c-0.9,0.8-1.9,1.3-3.2,1.3c-2.7,0-4.6-1.9-4.6-4.7c0-2.9,1.9-4.9,4.6-4.9
		c1.4,0,2.3,0.4,3.2,1.3l0-1.1H155.9z M148.3,10.5c0,2,1.1,3.2,2.9,3.2c1.7,0,2.9-1.2,2.9-3.2c0-2-1.1-3.3-2.9-3.3
		C149.3,7.3,148.3,8.5,148.3,10.5z"/>
	<path fill="#C7C7C7" d="M160.9,6v1.5c0.4-0.6,0.6-0.8,0.9-1c0.5-0.5,1.3-0.8,1.9-0.8c0.4,0,0.8,0.1,1.1,0.2v1.7
		c-0.4-0.1-0.6-0.1-0.9-0.1c-1.6,0-2.9,1.3-2.9,3.1v5.1h-2V6H160.9z"/>
	<path fill="#C7C7C7" d="M167.9,11.3c0.2,2,1.3,3.1,3.1,3.1c1.3,0,2.1-0.5,2.6-1.7h1.9c-0.5,2-2.2,3.2-4.6,3.2c-3,0-5.1-2.1-5.1-5.1
		s2-5.1,5-5.1c2.1,0,3.7,1,4.4,2.9c0.3,0.7,0.4,1.5,0.4,2.7H167.9z M173.6,9.9c-0.1-1.8-1.1-2.8-2.7-2.8c-1.7,0-2.9,1.1-3,2.8H173.6
		z"/>
	<path fill="#C7C7C7" d="M184.3,8.9c-0.3-1.2-1-1.7-2.4-1.7c-1.2,0-2,0.5-2,1.1c0,0.5,0.4,0.8,1.2,1l2.5,0.6
		c2.2,0.5,3.2,1.4,3.2,2.9c0,1.9-1.7,3.1-4.4,3.1c-2.9,0-4.6-1.3-4.8-3.6h2c0.1,1.3,1.2,2,2.9,2c1.5,0,2.4-0.6,2.4-1.5
		c0-0.6-0.5-1-1.7-1.3l-2.1-0.5c-1.1-0.3-1.8-0.5-2.3-0.9c-0.5-0.4-0.8-1-0.8-1.7c0-1.7,1.7-2.9,4.1-2.9c1.5,0,2.8,0.5,3.5,1.3
		c0.5,0.5,0.7,1,0.8,1.9H184.3z"/>
	<path fill="#C7C7C7" d="M195.2,8.9c-0.3-1.2-1-1.7-2.4-1.7c-1.2,0-2,0.5-2,1.1c0,0.5,0.4,0.8,1.2,1l2.5,0.6
		c2.2,0.5,3.2,1.4,3.2,2.9c0,1.9-1.7,3.1-4.4,3.1c-2.9,0-4.6-1.3-4.8-3.6h2c0.1,1.3,1.2,2,2.9,2c1.5,0,2.4-0.6,2.4-1.5
		c0-0.6-0.5-1-1.7-1.3l-2.1-0.5c-1.1-0.3-1.8-0.5-2.3-0.9c-0.5-0.4-0.8-1-0.8-1.7c0-1.7,1.7-2.9,4.1-2.9c1.5,0,2.8,0.5,3.5,1.3
		c0.5,0.5,0.7,1,0.8,1.9H195.2z"/>
</g>
</svg>
