<svg xmlns="http://www.w3.org/2000/svg" xmlns:xlink="http://www.w3.org/1999/xlink" viewBox="0 0 594.89 70.07"><defs><style>.cls-1{fill:none;}.cls-2{fill:#666;}.cls-3{fill:url(#linear-gradient);}.cls-4{clip-path:url(#clip-path);}.cls-5{fill:url(#linear-gradient-2);}.cls-6{fill:url(#linear-gradient-3);}.cls-7{fill:url(#linear-gradient-4);}.cls-8{fill:url(#linear-gradient-5);}.cls-9{fill:url(#linear-gradient-6);}.cls-10{fill:url(#linear-gradient-7);}.cls-11{fill:url(#linear-gradient-8);}.cls-12{fill:url(#linear-gradient-9);}.cls-13{fill:url(#linear-gradient-10);}.cls-14{fill:url(#linear-gradient-11);}.cls-15{fill:url(#linear-gradient-12);}.cls-16{fill:url(#linear-gradient-13);}.cls-17{fill:url(#linear-gradient-14);}.cls-18{fill:url(#linear-gradient-15);}.cls-19{fill:url(#linear-gradient-16);}.cls-20{fill:url(#linear-gradient-17);}.cls-21{fill:#fff;}</style><linearGradient id="linear-gradient" x1="-325.97" y1="-366.55" x2="-324.97" y2="-366.55" gradientTransform="matrix(112.06, 0, 0, -112.06, 36731.05, -41041.95)" gradientUnits="userSpaceOnUse"><stop offset="0" stop-color="#b93e00"/><stop offset="0.67" stop-color="#688f00"/><stop offset="1" stop-color="#3eb900"/></linearGradient><clipPath id="clip-path"><polygon class="cls-1" points="313.93 35.03 271.37 2.04 271.37 20.42 244.42 20.42 244.42 2.04 201.86 35.03 244.42 68.03 244.42 49.99 271.37 49.99 271.37 68.03 313.93 35.03"/></clipPath><linearGradient id="linear-gradient-2" x1="88.92" y1="-901.91" x2="89.92" y2="-901.91" gradientTransform="matrix(1, 0, 0, -1, 121.84, -866.92)" gradientUnits="userSpaceOnUse"><stop offset="0" stop-color="#3eb900"/><stop offset="0.33" stop-color="#688f00"/><stop offset="1" stop-color="#b93e00"/></linearGradient><linearGradient id="linear-gradient-3" x1="88.92" y1="-901.91" x2="89.92" y2="-901.91" gradientTransform="matrix(1, 0, 0, -1, 128.11, -866.92)" xlink:href="#linear-gradient-2"/><linearGradient id="linear-gradient-4" x1="88.92" y1="-901.91" x2="89.92" y2="-901.91" gradientTransform="matrix(1, 0, 0, -1, 178.2, -866.92)" xlink:href="#linear-gradient-2"/><linearGradient id="linear-gradient-5" x1="88.92" y1="-901.91" x2="89.92" y2="-901.91" gradientTransform="matrix(1, 0, 0, -1, 165.68, -866.92)" xlink:href="#linear-gradient-2"/><linearGradient id="linear-gradient-6" x1="88.92" y1="-901.91" x2="89.92" y2="-901.91" gradientTransform="matrix(1, 0, 0, -1, 153.15, -866.92)" xlink:href="#linear-gradient-2"/><linearGradient id="linear-gradient-7" x1="88.92" y1="-901.91" x2="89.92" y2="-901.91" gradientTransform="matrix(1, 0, 0, -1, 140.63, -866.92)" xlink:href="#linear-gradient-2"/><linearGradient id="linear-gradient-8" x1="88.92" y1="-901.91" x2="89.92" y2="-901.91" gradientTransform="matrix(1, 0, 0, -1, 134.37, -866.92)" xlink:href="#linear-gradient-2"/><linearGradient id="linear-gradient-9" x1="88.92" y1="-901.91" x2="89.92" y2="-901.91" gradientTransform="matrix(1, 0, 0, -1, 190.72, -866.92)" xlink:href="#linear-gradient-2"/><linearGradient id="linear-gradient-10" x1="88.92" y1="-901.91" x2="89.92" y2="-901.91" gradientTransform="matrix(1, 0, 0, -1, 146.89, -866.92)" xlink:href="#linear-gradient-2"/><linearGradient id="linear-gradient-11" x1="88.92" y1="-901.91" x2="89.92" y2="-901.91" gradientTransform="matrix(1, 0, 0, -1, 159.41, -866.92)" xlink:href="#linear-gradient-2"/><linearGradient id="linear-gradient-12" x1="88.92" y1="-901.91" x2="89.92" y2="-901.91" gradientTransform="matrix(1, 0, 0, -1, 209.51, -866.92)" xlink:href="#linear-gradient-2"/><linearGradient id="linear-gradient-13" x1="88.92" y1="-901.91" x2="89.92" y2="-901.91" gradientTransform="matrix(1, 0, 0, -1, 203.25, -866.92)" xlink:href="#linear-gradient-2"/><linearGradient id="linear-gradient-14" x1="88.92" y1="-901.91" x2="89.92" y2="-901.91" gradientTransform="matrix(1, 0, 0, -1, 196.99, -866.92)" xlink:href="#linear-gradient-2"/><linearGradient id="linear-gradient-15" x1="88.92" y1="-901.91" x2="89.92" y2="-901.91" gradientTransform="matrix(1, 0, 0, -1, 184.46, -866.92)" xlink:href="#linear-gradient-2"/><linearGradient id="linear-gradient-16" x1="88.92" y1="-901.91" x2="89.92" y2="-901.91" gradientTransform="matrix(1, 0, 0, -1, 171.94, -866.92)" xlink:href="#linear-gradient-2"/><linearGradient id="linear-gradient-17" x1="88.92" y1="-901.91" x2="89.92" y2="-901.91" gradientTransform="matrix(1, 0, 0, -1, 215.77, -866.92)" xlink:href="#linear-gradient-2"/></defs><title>horizontal_slider</title><g id="Layer_2" data-name="Layer 2"><g id="sliders"><g id="horizontal_slider"><rect id="opening" x="0.96" y="25.39" width="592.98" height="19"/><polygon id="rim" class="cls-2" points="0.96 25.39 0.96 26.89 592.98 26.89 592.98 42.89 1.91 42.89 1.91 25.39 0.96 25.39 0.96 26.89 0.96 25.39 0 25.39 0 45.89 594.89 45.89 594.89 23.89 0 23.89 0 25.39 0.96 25.39"/><polyline id="track" class="cls-2" points="585.33 33.39 9.56 33.39 9.56 36.39 585.33 36.39"/><polygon id="knob" class="cls-3" points="313.93 35.03 271.37 2.04 271.37 20.42 244.42 20.42 244.42 2.04 201.86 35.03 244.42 68.03 244.42 49.99 271.37 49.99 271.37 68.03 313.93 35.03"/><g id="grip_lines"><g class="cls-4"><polyline class="cls-5" points="210.77 1.83 210.77 68.14 211.77 68.14 211.77 1.83"/><polyline class="cls-6" points="217.03 1.83 217.03 68.14 218.03 68.14 218.03 1.83"/><polyline class="cls-7" points="267.12 1.83 267.12 68.14 268.12 68.14 268.12 1.83"/><polyline class="cls-8" points="254.6 1.83 254.6 68.14 255.6 68.14 255.6 1.83"/><polyline class="cls-9" points="242.07 1.83 242.07 68.14 243.07 68.14 243.07 1.83"/><polyline class="cls-10" points="229.55 1.83 229.55 68.14 230.55 68.14 230.55 1.83"/><polyline class="cls-11" points="223.29 1.83 223.29 68.14 224.29 68.14 224.29 1.83"/><polyline class="cls-12" points="279.65 1.83 279.65 68.14 280.65 68.14 280.65 1.83"/><polyline class="cls-13" points="235.81 1.83 235.81 68.14 236.81 68.14 236.81 1.83"/><polyline class="cls-14" points="248.34 1.83 248.34 68.14 249.34 68.14 249.34 1.83"/><polyline class="cls-15" points="298.43 1.83 298.43 68.14 299.43 68.14 299.43 1.83"/><polyline class="cls-16" points="292.17 1.83 292.17 68.14 293.17 68.14 293.17 1.83"/><polyline class="cls-17" points="285.91 1.83 285.91 68.14 286.91 68.14 286.91 1.83"/><polyline class="cls-18" points="273.38 1.83 273.38 68.14 274.38 68.14 274.38 1.83"/><polyline class="cls-19" points="260.86 1.83 260.86 68.14 261.86 68.14 261.86 1.83"/><polyline class="cls-20" points="304.69 1.83 304.69 68.14 305.69 68.14 305.69 1.83"/></g></g><polygon id="knob_outline" class="cls-21" points="313.93 35.03 314.54 34.24 270.37 0 270.37 19.42 245.42 19.42 245.42 0 200.23 35.03 245.42 70.07 245.42 50.99 270.37 50.99 270.37 70.07 315.56 35.03 314.54 34.24 313.93 35.03 313.31 34.24 272.37 65.99 272.37 48.99 243.42 48.99 243.42 65.99 203.49 35.03 243.42 4.08 243.42 21.42 272.37 21.42 272.37 4.08 313.31 35.83 313.93 35.03 313.31 34.24 313.93 35.03"/></g></g></g></svg>