<svg xmlns="http://www.w3.org/2000/svg" xmlns:xlink="http://www.w3.org/1999/xlink" viewBox="0 0 70.07 594.89"><defs><style>.cls-1{fill:none;}.cls-2{fill:#666;}.cls-3{fill:url(#linear-gradient);}.cls-4{clip-path:url(#clip-path);}.cls-5{fill:url(#linear-gradient-2);}.cls-6{fill:url(#linear-gradient-3);}.cls-7{fill:url(#linear-gradient-4);}.cls-8{fill:url(#linear-gradient-5);}.cls-9{fill:url(#linear-gradient-6);}.cls-10{fill:url(#linear-gradient-7);}.cls-11{fill:url(#linear-gradient-8);}.cls-12{fill:url(#linear-gradient-9);}.cls-13{fill:url(#linear-gradient-10);}.cls-14{fill:url(#linear-gradient-11);}.cls-15{fill:url(#linear-gradient-12);}.cls-16{fill:url(#linear-gradient-13);}.cls-17{fill:url(#linear-gradient-14);}.cls-18{fill:url(#linear-gradient-15);}.cls-19{fill:url(#linear-gradient-16);}.cls-20{fill:url(#linear-gradient-17);}.cls-21{fill:#fff;}</style><linearGradient id="linear-gradient" x1="-241.42" y1="-49.03" x2="-240.42" y2="-49.03" gradientTransform="matrix(0, 112.06, 112.06, 0, 5529.75, 27255.71)" gradientUnits="userSpaceOnUse"><stop offset="0" stop-color="#b93e00"/><stop offset="0.67" stop-color="#688f00"/><stop offset="1" stop-color="#3eb900"/></linearGradient><clipPath id="clip-path"><polygon class="cls-1" points="35.03 313.93 68.03 271.37 49.65 271.37 49.65 244.42 68.03 244.42 35.03 201.86 2.04 244.42 20.08 244.42 20.08 271.37 2.04 271.37 35.03 313.93"/></clipPath><linearGradient id="linear-gradient-2" x1="115.78" y1="-928.77" x2="116.78" y2="-928.77" gradientTransform="matrix(0, 1, 1, 0, 963.86, 94.98)" gradientUnits="userSpaceOnUse"><stop offset="0" stop-color="#3eb900"/><stop offset="0.33" stop-color="#688f00"/><stop offset="1" stop-color="#b93e00"/></linearGradient><linearGradient id="linear-gradient-3" x1="115.79" y1="-928.77" x2="116.79" y2="-928.77" gradientTransform="matrix(0, 1, 1, 0, 963.86, 101.24)" xlink:href="#linear-gradient-2"/><linearGradient id="linear-gradient-4" x1="115.79" y1="-928.77" x2="116.79" y2="-928.77" gradientTransform="matrix(0, 1, 1, 0, 963.86, 151.34)" xlink:href="#linear-gradient-2"/><linearGradient id="linear-gradient-5" x1="115.79" y1="-928.77" x2="116.79" y2="-928.77" gradientTransform="matrix(0, 1, 1, 0, 963.86, 138.81)" xlink:href="#linear-gradient-2"/><linearGradient id="linear-gradient-6" x1="115.78" y1="-928.77" x2="116.78" y2="-928.77" gradientTransform="matrix(0, 1, 1, 0, 963.86, 126.29)" xlink:href="#linear-gradient-2"/><linearGradient id="linear-gradient-7" x1="115.79" y1="-928.77" x2="116.79" y2="-928.77" gradientTransform="matrix(0, 1, 1, 0, 963.86, 113.77)" xlink:href="#linear-gradient-2"/><linearGradient id="linear-gradient-8" x1="115.78" y1="-928.77" x2="116.78" y2="-928.77" gradientTransform="matrix(0, 1, 1, 0, 963.86, 107.5)" xlink:href="#linear-gradient-2"/><linearGradient id="linear-gradient-9" x1="115.79" y1="-928.77" x2="116.79" y2="-928.77" gradientTransform="matrix(0, 1, 1, 0, 963.86, 163.86)" xlink:href="#linear-gradient-2"/><linearGradient id="linear-gradient-10" x1="115.79" y1="-928.77" x2="116.79" y2="-928.77" gradientTransform="matrix(0, 1, 1, 0, 963.86, 120.03)" xlink:href="#linear-gradient-2"/><linearGradient id="linear-gradient-11" x1="115.79" y1="-928.77" x2="116.79" y2="-928.77" gradientTransform="matrix(0, 1, 1, 0, 963.86, 132.55)" xlink:href="#linear-gradient-2"/><linearGradient id="linear-gradient-12" x1="115.79" y1="-928.77" x2="116.79" y2="-928.77" gradientTransform="matrix(0, 1, 1, 0, 963.86, 182.65)" xlink:href="#linear-gradient-2"/><linearGradient id="linear-gradient-13" x1="115.79" y1="-928.77" x2="116.79" y2="-928.77" gradientTransform="matrix(0, 1, 1, 0, 963.86, 176.39)" xlink:href="#linear-gradient-2"/><linearGradient id="linear-gradient-14" x1="115.78" y1="-928.77" x2="116.78" y2="-928.77" gradientTransform="matrix(0, 1, 1, 0, 963.86, 170.12)" xlink:href="#linear-gradient-2"/><linearGradient id="linear-gradient-15" x1="115.79" y1="-928.77" x2="116.79" y2="-928.77" gradientTransform="matrix(0, 1, 1, 0, 963.86, 157.6)" xlink:href="#linear-gradient-2"/><linearGradient id="linear-gradient-16" x1="115.78" y1="-928.77" x2="116.78" y2="-928.77" gradientTransform="matrix(0, 1, 1, 0, 963.86, 145.08)" xlink:href="#linear-gradient-2"/><linearGradient id="linear-gradient-17" x1="115.79" y1="-928.77" x2="116.79" y2="-928.77" gradientTransform="matrix(0, 1, 1, 0, 963.86, 188.91)" xlink:href="#linear-gradient-2"/></defs><title>vertical_slider</title><g id="Layer_2" data-name="Layer 2"><g id="sliders"><g id="vertical_slider"><rect id="opening" x="25.68" y="0.96" width="19" height="592.98"/><polygon id="rim" class="cls-2" points="44.68 0.96 43.18 0.96 43.18 592.98 27.18 592.98 27.18 1.91 44.68 1.91 44.68 0.96 43.18 0.96 44.68 0.96 44.68 0 24.18 0 24.18 594.89 46.18 594.89 46.18 0 44.68 0 44.68 0.96"/><polyline id="track" class="cls-2" points="36.68 585.33 36.68 9.56 33.68 9.56 33.68 585.33"/><polygon id="knob" class="cls-3" points="35.03 313.93 68.03 271.37 49.65 271.37 49.65 244.42 68.03 244.42 35.03 201.86 2.04 244.42 20.08 244.42 20.08 271.37 2.04 271.37 35.03 313.93"/><g id="grip_lines"><g class="cls-4"><polyline class="cls-5" points="68.24 210.77 1.93 210.77 1.93 211.77 68.24 211.77"/><polyline class="cls-6" points="68.24 217.03 1.93 217.03 1.93 218.03 68.24 218.03"/><polyline class="cls-7" points="68.24 267.12 1.93 267.12 1.93 268.12 68.24 268.12"/><polyline class="cls-8" points="68.24 254.6 1.93 254.6 1.93 255.6 68.24 255.6"/><polyline class="cls-9" points="68.24 242.07 1.93 242.07 1.93 243.07 68.24 243.07"/><polyline class="cls-10" points="68.24 229.55 1.93 229.55 1.93 230.55 68.24 230.55"/><polyline class="cls-11" points="68.24 223.29 1.93 223.29 1.93 224.29 68.24 224.29"/><polyline class="cls-12" points="68.24 279.65 1.93 279.65 1.93 280.65 68.24 280.65"/><polyline class="cls-13" points="68.24 235.81 1.93 235.81 1.93 236.81 68.24 236.81"/><polyline class="cls-14" points="68.24 248.34 1.93 248.34 1.93 249.34 68.24 249.34"/><polyline class="cls-15" points="68.24 298.43 1.93 298.43 1.93 299.43 68.24 299.43"/><polyline class="cls-16" points="68.24 292.17 1.93 292.17 1.93 293.17 68.24 293.17"/><polyline class="cls-17" points="68.24 285.91 1.93 285.91 1.93 286.91 68.24 286.91"/><polyline class="cls-18" points="68.24 273.38 1.93 273.38 1.93 274.38 68.24 274.38"/><polyline class="cls-19" points="68.24 260.86 1.93 260.86 1.93 261.86 68.24 261.86"/><polyline class="cls-20" points="68.24 304.69 1.93 304.69 1.93 305.69 68.24 305.69"/></g></g><polygon id="knob_outline" class="cls-21" points="35.03 313.93 35.83 314.54 70.07 270.37 50.65 270.37 50.65 245.42 70.07 245.42 35.03 200.23 0 245.42 19.08 245.42 19.08 270.37 0 270.37 35.03 315.56 35.83 314.54 35.03 313.93 35.83 313.31 4.08 272.37 21.08 272.37 21.08 243.42 4.08 243.42 35.03 203.49 65.99 243.42 48.65 243.42 48.65 272.37 65.99 272.37 34.24 313.31 35.03 313.93 35.83 313.31 35.03 313.93"/></g></g></g></svg>